<svg xmlns="http://www.w3.org/2000/svg" width="24" height="24" viewBox="0 0 24 24" fill="none">
  <g opacity="0.5">
    <path fillRule="evenodd" clipRule="evenodd" d="M1.25 10.5C1.25 5.39139 5.39139 1.25 10.5 1.25C15.6086 1.25 19.75 5.39139 19.75 10.5C19.75 15.6086 15.6086 19.75 10.5 19.75C5.39139 19.75 1.25 15.6086 1.25 10.5ZM10.5 2.75C6.21981 2.75 2.75 6.21981 2.75 10.5C2.75 14.7802 6.21981 18.25 10.5 18.25C14.7802 18.25 18.25 14.7802 18.25 10.5C18.25 6.21981 14.7802 2.75 10.5 2.75Z" fill="url(#paint0_linear_111_369)"/>
    <path fillRule="evenodd" clipRule="evenodd" d="M7.14132 6.6412C8.00011 5.78247 9.18863 5.25 10.5001 5.25C11.8115 5.25 13.0001 5.78246 13.8588 6.64122C14.1517 6.93411 14.1517 7.40899 13.8588 7.70188C13.5659 7.99477 13.091 7.99477 12.7982 7.70188C12.2092 7.11294 11.3977 6.75 10.5001 6.75C9.60243 6.75 8.79095 7.11293 8.20194 7.7019C7.90904 7.99478 7.43417 7.99476 7.14128 7.70186C6.8484 7.40896 6.84842 6.93408 7.14132 6.6412Z" fill="url(#paint1_linear_111_369)"/>
    <path fillRule="evenodd" clipRule="evenodd" d="M16.0805 16.0806C16.3734 15.7877 16.8483 15.7877 17.1412 16.0806L21.3838 20.3232C21.6767 20.6161 21.6767 21.091 21.3838 21.3839C21.0909 21.6768 20.6161 21.6768 20.3232 21.3839L16.0805 17.1412C15.7876 16.8483 15.7876 16.3735 16.0805 16.0806Z" fill="url(#paint2_linear_111_369)"/>
  </g>
  <defs>
    <linearGradient id="paint0_linear_111_369" x1="1.25" y1="1.25" x2="19.9755" y2="1.48118" gradientUnits="userSpaceOnUse">
      <stop stopColor="#FF8A00"/>
      <stop offset="1" stopColor="#FF0000"/>
    </linearGradient>
    <linearGradient id="paint1_linear_111_369" x1="6.92163" y1="5.25" x2="14.1589" y2="5.48936" gradientUnits="userSpaceOnUse">
      <stop stopColor="#FF8A00"/>
      <stop offset="1" stopColor="#FF0000"/>
    </linearGradient>
    <linearGradient id="paint2_linear_111_369" x1="15.8608" y1="15.8609" x2="21.6735" y2="15.9327" gradientUnits="userSpaceOnUse">
      <stop stopColor="#FF8A00"/>
      <stop offset="1" stopColor="#FF0000"/>
    </linearGradient>
  </defs>
</svg>