<svg xmlns="http://www.w3.org/2000/svg" width="20" height="20" viewBox="0 0 20 20" fill="none">
<path fillRule="evenodd" clipRule="evenodd" d="M2.91659 6.04169C2.80153 6.04169 2.70825 6.13496 2.70825 6.25002V15.4167C2.70825 15.5317 2.80153 15.625 2.91659 15.625H17.0833C17.1983 15.625 17.2916 15.5317 17.2916 15.4167V6.25002C17.2916 6.13496 17.1983 6.04169 17.0833 6.04169H2.91659ZM1.45825 6.25002C1.45825 5.44461 2.11117 4.79169 2.91659 4.79169H17.0833C17.8887 4.79169 18.5416 5.44461 18.5416 6.25002V15.4167C18.5416 16.2221 17.8887 16.875 17.0833 16.875H2.91659C2.11117 16.875 1.45825 16.2221 1.45825 15.4167V6.25002Z" fill="white"/>
<path fillRule="evenodd" clipRule="evenodd" d="M9.79175 8.33331C9.79175 7.98814 10.0716 7.70831 10.4167 7.70831H17.9167C18.2619 7.70831 18.5417 7.98814 18.5417 8.33331V12.9166C18.5417 13.2618 18.2619 13.5416 17.9167 13.5416H10.4167C10.0716 13.5416 9.79175 13.2618 9.79175 12.9166V8.33331ZM11.0417 8.95831V12.2916H17.2917V8.95831H11.0417Z" fill="white"/>
<path fillRule="evenodd" clipRule="evenodd" d="M17.9167 6.875C18.2619 6.875 18.5417 7.15482 18.5417 7.5V13.75C18.5417 14.0952 18.2619 14.375 17.9167 14.375C17.5716 14.375 17.2917 14.0952 17.2917 13.75V7.5C17.2917 7.15482 17.5716 6.875 17.9167 6.875Z" fill="white"/>
<path fillRule="evenodd" clipRule="evenodd" d="M3.20915 3.21213C3.61106 2.67892 4.26636 2.29169 5.20825 2.29169H11.2499C11.6741 2.29169 12.3454 2.4271 12.9233 2.90298C13.5278 3.40079 13.9583 4.21234 13.9583 5.41669C13.9583 5.76186 13.6784 6.04169 13.3333 6.04169C12.9881 6.04169 12.7083 5.76186 12.7083 5.41669C12.7083 4.5377 12.4096 4.09925 12.1286 3.86789C11.8211 3.61461 11.4507 3.54169 11.2499 3.54169H5.20825C4.65015 3.54169 4.36794 3.75147 4.20735 3.96452C4.02407 4.20768 3.95825 4.51521 3.95825 4.70773V5.41669C3.95825 5.76186 3.67843 6.04169 3.33325 6.04169C2.98807 6.04169 2.70825 5.76186 2.70825 5.41669V4.70773C2.70825 4.30324 2.82993 3.71524 3.20915 3.21213Z" fill="white"/>
<path d="M13.9583 11.25C14.3034 11.25 14.5833 10.9702 14.5833 10.625C14.5833 10.2798 14.3034 10 13.9583 10C13.6131 10 13.3333 10.2798 13.3333 10.625C13.3333 10.9702 13.6131 11.25 13.9583 11.25Z" fill="white"/>
</svg>